<svg fill="none" height="57" viewBox="0 0 123 57" width="123" xmlns="http://www.w3.org/2000/svg" xmlns:xlink="http://www.w3.org/1999/xlink"><clipPath id="a"><path d="m0 0h122.59v56.15h-122.59z"/></clipPath><g clip-path="url(#a)"><path clip-rule="evenodd" d="m37.33 19.3397c1.6892-1.7609 3.8254-3.0294 6.18-3.67 1.0463-.3232 2.1616-.3505 3.2224-.0786 1.0609.2718 2.0257.8321 2.7876 1.6186 3.46 3.94 2.66 13.3-2.54 27.83-.1391.3721-.4183.6749-.7779.8436-.3596.1688-.7709.1901-1.146.0594-.375-.1306-.6841-.403-.8609-.7586-.1768-.3557-.2074-.7664-.0852-1.1444 6.51-18.22 4.36-23.39 3.13-24.76-.3823-.3891-.8663-.6629-1.3967-.7902-.5305-.1274-1.086-.103-1.6033.0702-2.3996.7345-4.4862 2.2475-5.93 4.3 2.12 8.61 3.69 18.45 1 22.36-.315.4924-.7363.9078-1.2329 1.2159-.4967.308-1.0561.5008-1.6371.5641-.4578.0493-.9206-.0164-1.3466-.191-.4261-.1746-.8019-.4526-1.0934-.809-2.84-3.34-1.42-15.91.1-21.42.2126-.7533.5148-1.4785.9-2.16-.15-.59-.31-1.19-.48-1.81-2.72-9.95-7.19-17.54995-8.77-17.54995-1.21.7-4.39 7.39995 2.93 27.39995.1157.3658.0898.7617-.0725 1.1092-.1624.3476-.4494.6214-.8042.7674-.3548.1459-.7514.1532-1.1113.0205-.36-.1327-.6569-.3957-.832-.7371-7.55-16.43-11.15-21.2-12.49-22.55995-.53 2.46995-.84 10.01995 8.16 26.53995.1737.3441.2112.7411.1049 1.1116-.1064.3706-.3486.6873-.6784.8869-.3297.1996-.7227.2674-1.1002.1898-.3776-.0775-.712-.2948-.9363-.6083-.3195-.4759-.6463-.9633-.9786-1.4587-4.1917-6.2508-9.24961-13.7931-11.37142-15.9613-.26 2.44.5 9.59 8.32002 21.44.2225.3295.308.7326.2385 1.124-.0695.3913-.2887.7403-.611.973-.3223.2326-.7226.3307-1.1159.2734-.3934-.0573-.749-.2654-.9916-.5804-5.57002-7.13-8.41002-8.82-9.41002-9.21.12 1.87 2.19 8.02 6.94 13.13 3.17002 3.43 8.40002 7.24 15.34002 5.9.197-.038.3995-.037.5961.0032.1965.0402.3833.1188.5495.2311.1662.1124.3087.2564.4192.4238.1106.1674.1871.355.2252.5519.0381.197.037.3996-.0032.5961-.0402.1966-.1187.3833-.2311.5495-.1124.1663-.2564.3087-.4238.4193s-.3549.1871-.5519.2251c-1.1426.2277-2.305.3416-3.47.34-8.37 0-14.14002-6.03-17.00002-9.95-3.49-4.76-6.39-11.81-4.999997-14.32.200232-.3623.488323-.6685.837797-.8904.34947-.2219.74912-.3524 1.1622-.3796 1.53459.0814 2.9953.6847 4.14 1.71-3.41-7.66-3.51-12.85-2.41-14.85.17445-.3706.44597-.6872.78575-.9161.33979-.2288.73518-.3615 1.14425-.3839 1.28-.05 2.39.58 6.00002 5.52-2.95002-9.16-1.77-13.42995-1.15-14.79995.1637-.39993.4397-.74395.7946-.99058.3548-.24663.7735-.38535 1.2054-.39942h.0026c.9212-.00001 2.9028-.00003 8.5874 10.38995-1.49-9.15995.21-14.02995 2.79-15.489954.4172-.242948.8868-.3816276 1.3691-.40425975.4822-.02263215.9628.07145125 1.4009.27425975 4.11 1.730004 8.34 12.159954 10.28 19.069954zm-1.06 24.67c.226-.0743.4154-.2315.53-.44.55-.81 1.91-4.1-.42-15.29-1.23 6.48-1.22 14.4-.11 15.73zm78.53-34.60062h6.61c.197-.02543.396.00525.576.08849.18.08325.332.21566.44.38195.108.16628.166.35968.169.55778.002.1981-.051.3929-.155.5618l-9.62 20.85c-.453 1.0789-.707 2.2307-.75 3.4v9.09c0 .4703-.186.9216-.518 1.2551-.331.3335-.782.5222-1.252.5249h-6.16c-.234 0-.465-.0461-.681-.1355-.216-.0895-.412-.2206-.578-.3859-.165-.1653-.296-.3615-.385-.5774-.09-.216-.136-.4475-.136-.6812v-9.09c-.039-1.1687-.29-2.3206-.74-3.4l-5.84-12.69c-.242-.4686-.6034-.8651-1.0476-1.1495-.4441-.2844-.9555-.4467-1.4824-.4705h-9c-.2337 0-.4652.046-.6811.1355-.216.0894-.4122.2205-.5775.3858s-.2964.3615-.3859.5775c-.0894.216-.1355.4474-.1355.6812v2.2c0 .4721.1876.9248.5214 1.2586s.7866.5214 1.2586.5214h6.66c.4721 0 .9249.1875 1.2587.5213s.5214.7866.5213 1.2587v4.59c-.0026.4713-.191.9225-.5242 1.2557-.3332.3333-.7845.5216-1.2558.5243h-6.6399c-.4704 0-.9217.1861-1.2552.5178-.3335.3316-.5222.7818-.5248 1.2522v3c0 .4721.1875.9248.5213 1.2586s.7866.5214 1.2587.5214h11c.4616.0129.9001.2048 1.2229.5351s.5046.7731.507 1.2349v4.57c.0002.4635-.1804.9089-.5035 1.2413s-.7631.5257-1.2264.5387h-20.7201c-.472 0-.9248-.1876-1.2586-.5214s-.5213-.7865-.5213-1.2586v-11c0-.4704-.1862-.9216-.5179-1.2552-.3316-.3335-.7818-.5222-1.2522-.5248h-7.4399c-.2338 0-.4653.046-.6812.1355-.216.0894-.4122.2205-.5775.3858s-.2964.3615-.3859.5775c-.0894.216-.1355.4474-.1355.6812v11c0 .4721-.1875.9248-.5213 1.2586s-.7866.5214-1.2587.5214h-6.1699c-.4721 0-.9249-.1876-1.2587-.5214s-.5214-.7865-.5214-1.2586v-5.39c3.28-11.32 3.27-18.92 0-23.1v-4.66c0-.4721.1876-.9249.5214-1.25867.3338-.33382.7866-.52135 1.2587-.52135h6.1699c.2371-.00533.4729.03677.6935.12384.2206.08706.4216.21733.5911.38315.1696.16583.3043.36383.3962.58243.092.2186.1393.4534.1392.6906v10.11c0 .4721.1876.9248.5214 1.2586s.7866.5214 1.2586.5214h7.4c.4617-.0156.8991-.21 1.2201-.5421.3209-.3322.5002-.7761.4999-1.2379v-10.11c0-.4721.1876-.9249.5214-1.25867.3338-.33382.7866-.52135 1.2586-.52135h25.4301c.5149.02258 1.0119.19306 1.4319.49102.421.298.746.7108.938 1.189l1.53 4.32c.232.6471.558 1.5912.843 2.4145.12.3471.232.6727.327.9455l1.6 4.83c.17.5829.401 1.146.69 1.68.3-.5311.538-1.0948.71-1.68l1.7-4.84 1.2-3.35 1.53-4.32c.192-.4782.517-.891.938-1.189.42-.29796.917-.46844 1.432-.49102z" fill="#28323c" fill-rule="evenodd"/></g></svg>