<svg fill="none" height="32" viewBox="0 0 145 32" width="145" xmlns="http://www.w3.org/2000/svg" xmlns:xlink="http://www.w3.org/1999/xlink"><clipPath id="a"><path d="m0 0h144.27v31.89h-144.27z"/></clipPath><g clip-path="url(#a)"><path clip-rule="evenodd" d="m10.7356 30.145c2.6967 1.1888 5.6175 1.7839 8.5644 1.745 8.36 0 14.43-2.54 17.09-7.11.1691-.3048.2456-.6524.22-1-.61-9.2-5.9-23.78-17.31-23.78-8.74 0-15.20002 5.74-19.2000154 17.06-.1189506.4162-.0746281.8622.1239274 1.2469.198555.3846.536384.6791.944578.8232.4082.1442.85601.1271 1.25209-.0476.39609-.1746.7106-.4939.8794-.8925 3.47-9.8 8.85002-14.8 16.00002-14.8 8.44 0 13.14 11.61 13.88 20.08-2.16 3.17-7.17 5-13.88 5-2.2975.048-4.5809-.3704-6.7122-1.2298s-4.06619-2.142-5.68782-3.7702c1.36-3.28 3.25002-6.27 4.12002-6.42.39 0 1.41 1.08 1.9 1.6l.0153.0162c1.0853 1.145 2.212 2.3338 3.7647 2.3338.7 0 2.84 0 6.84-8.57.1637-.4043.1658-.8561.0058-1.2619-.1601-.4058-.47-.7345-.8656-.9182s-.8467-.2083-1.26-.0686c-.4133.1396-.757.4327-.9602.8187-1.0178 2.3209-2.3285 4.5019-3.9 6.49-.4211-.3608-.8186-.7482-1.19-1.16l-.0262-.0276c-1.1155-1.1754-2.4983-2.6324-4.3438-2.6324-3.66002.02-6.59002 6.72-7.66002 9.6-.10821.291-.13467.6061-.07649.9111.05817.3049.19876.5882.40649.8189 1.95924 2.2016 4.36889 3.9562 7.06562 5.145zm31.8044-21.33445h6.08c3.37 0 5.12 1.38995 5.12 3.99995v.08c.0527.7605-.1714 1.5144-.6308 2.1227-.4595.6082-1.1233 1.03-1.8692 1.1873.8901.079 1.7132.5052 2.2915 1.1864.5782.6812.8651 1.5626.7985 2.4536v.16c0 2.84-1.86 4.33-5.43 4.33h-6.36zm5.52 6.35995c1.68 0 2.35-.6 2.35-2v-.07c0-1.3-.73-1.89-2.38-1.89h-2.03v4zm.3 6.69c1.73 0 2.51-.78 2.51-2.19v-.08c0-1.43-.78-2.17-2.68-2.17h-2.19v4.44zm6.88-.72c0-2.64 2.42-3.63 5.89-3.63h1.27v-.46c0-1.34-.4-2.05-1.84-2.05-.2328-.0307-.4694-.0128-.695.0525-.2255.0653-.4351.1766-.6155.3269s-.3276.3364-.4326.5465c-.1049.21-.1651.4396-.1769.6741h-3c.2-2.68 2.32-3.87 5.09-3.87s4.73 1.12 4.73 4.19v7.38h-3v-1.38c-.3861.5463-.909.9816-1.5162 1.2624s-1.2775.3972-1.9438.3376c-2 0-3.76-1-3.76-3.38zm7.16-.82v-.95h-1.21c-1.82 0-2.88.39-2.88 1.6 0 .82.5 1.36 1.65 1.36 1.38 0 2.44-.75 2.44-2.01zm7.3399.4104h-2.92c.11 2.45 1.94 3.79 4.93 3.79s4.76-1.29 4.76-3.72-1.5599-3.14-4.39-3.55c-1.65-.23-2.19-.53-2.19-1.23s.6-1.17 1.6-1.17c.2072-.0353.4195-.0276.6236.0228.204.0503.3955.1421.5625.2697s.306.2883.4082.4719c.1021.1837.1654.3864.1857.5956h2.88c-.2799-2.6-2.16-3.5-4.67-3.5-2.31 0-4.48 1.31-4.48 3.52s1.18 3.07 4.18 3.53c1.6201.24 2.29.56 2.29 1.34s-.56 1.23-1.77 1.23c-1.37 0-1.87-.6-2-1.6zm7.5702-1.9716v-.17c-.0381-.7772.086-1.5537.3642-2.2803s.7046-1.3874 1.2519-1.9404 1.2037-.9861 1.9274-1.2717c.7237-.2857 1.499-.4177 2.2765-.3876 2.9199 0 5.52 1.71 5.52 5.75v.87h-8.16c.0899 1.88 1.11 3 2.81 3 1.45 0 2.17-.63 2.36-1.58h3c-.36 2.44-2.31 3.81-5.4 3.81-3.46-.04-5.95-2.18-5.95-5.8zm8.29-1.36c-.11-1.71-1-2.53-2.47-2.53-.6775-.0028-1.3288.261-1.8134.7344-.4846.4733-.7635 1.1183-.7766 1.7956zm3.8699 1.1903v.17c0 3.7 2.53 5.79 5.82 5.79s5.24-1.86 5.41-4.55h-2.83c-.0191.3045-.0982.6022-.2329.8759s-.3223.5181-.552.7189c-.2296.2008-.4968.3542-.786.4512s-.5948.1358-.8991.114c-1.77 0-2.77-1.17-2.77-3.44v-.17c0-2.17 1.09-3.38 2.71-3.38.2778-.0274.5583.0011.8249.0838.2666.0828.5139.2181.7274.398.2134.1799.3886.4007.5154.6495.1267.2487.2023.5203.2223.7987h3c-.32-3.25-2.7-4.39-5.32-4.39-.7788-.0313-1.5555.0996-2.2809.3845-.7254.285-1.3836.7177-1.9328 1.2706-.5492.553-.9774 1.2141-1.2574 1.9415-.28.7273-.4056 1.5049-.3689 2.2834zm11.97 2.5513c0-2.64 2.42-3.63 5.88-3.63h1.28v-.46c0-1.34-.41-2.07-1.84-2.07-.233-.0306-.471-.0128-.697.0525-.226.0652-.436.1763-.617.3265s-.329.3362-.435.5463-.168.4398-.181.6747h-3c.2-2.68 2.31-3.87 5.08-3.87s4.74 1.12 4.74 4.19v7.38h-3v-1.36c-.384.5387-.901.9691-1.5 1.2494s-1.26.4011-1.92.3506c-2.06 0-3.79-1-3.79-3.38zm7.16-.82v-.95h-1.21c-1.82 0-2.88.39-2.88 1.6 0 .82.5 1.36 1.64 1.36 1.39 0 2.45-.75 2.45-2.01zm8.19-7.3215h-3.13v11.27h3.13v-6.68c-.03-.3011.004-.6052.102-.8917.097-.2864.255-.5486.463-.7686.208-.2201.46-.3929.741-.5067.28-.1138.582-.166.884-.153 1.1 0 1.77.65 1.77 2.1v6.9h3.12v-6.68c-.032-.3006.001-.6045.098-.891.096-.2864.253-.5488.46-.769.207-.2203.459-.3933.739-.5072s.581-.166.883-.1528c1.13 0 1.78.65 1.78 2.1v6.9h3.11v-7.25c0-3-1.62-4.32-3.72-4.32-.752-.0132-1.495.1631-2.161.5126s-1.233.861-1.649 1.4874c-.237-.6302-.672-1.1662-1.24-1.527-.569-.3608-1.239-.5269-1.91-.473-.706-.0148-1.402.1637-2.014.5162-.611.3525-1.115.8656-1.456 1.4838zm15.8.0002h3.14v1.77c.379-.6152.911-1.1224 1.543-1.4727s1.344-.5319 2.067-.5273c2.77 0 4.93 2 4.93 5.79v.18c0 3.74-2.12 5.84-4.93 5.84-.727.0263-1.447-.1461-2.083-.4985s-1.164-.8715-1.527-1.5015v5.58h-3.14zm8.5 5.7v-.14c0-2.3-1.12-3.42-2.7-3.42s-2.77 1.14-2.77 3.42v.17c0 2.27 1.08 3.37 2.79 3.37s2.68-1.2 2.68-3.4z" fill="#28323c" fill-rule="evenodd"/></g></svg>