<svg fill="none" height="32" viewBox="0 0 145 32" width="145" xmlns="http://www.w3.org/2000/svg" xmlns:xlink="http://www.w3.org/1999/xlink"><clipPath id="a"><path d="m0 0h145v32h-145z"/></clipPath><g clip-path="url(#a)"><path clip-rule="evenodd" d="m10.7011 30.145c2.6967 1.1888 5.6175 1.7839 8.5643 1.745 8.36 0 14.43-2.54 17.09-7.11.1692-.3048.2456-.6524.22-1-.61-9.2-5.9-23.78-17.31-23.78-8.74 0-15.19996 5.74-19.1999613 17.06-.1189506.4162-.07462808.8622.1239273 1.2469.198555.3846.536384.6791.944584.8232.40819.1442.856.1271 1.25209-.0476.39608-.1746.7106-.4939.8794-.8925 3.47-9.8 8.84996-14.8 15.99996-14.8 8.44 0 13.14 11.61 13.88 20.08-2.16 3.17-7.17 5-13.88 5-2.2975.048-4.5809-.3704-6.7121-1.2298-2.1313-.8594-4.06623-2.142-5.68786-3.7702 1.36-3.28 3.24996-6.27 4.11996-6.42.39 0 1.41 1.08 1.9 1.6l.0154.0162c1.0853 1.145 2.212 2.3338 3.7646 2.3338.7 0 2.84 0 6.84-8.57.1638-.4043.1659-.8561.0058-1.2619-.16-.4058-.4699-.7345-.8655-.9182-.3957-.1837-.8468-.2083-1.2601-.0686-.4132.1396-.757.4327-.9602.8187-1.0178 2.3209-2.3284 4.5019-3.9 6.49-.4211-.3608-.8186-.7482-1.19-1.16l-.0262-.0276c-1.1154-1.1754-2.4982-2.6324-4.3438-2.6324-3.65996.02-6.58996 6.72-7.65996 9.6-.10822.291-.13467.6061-.0765.9111.05818.3049.19876.5882.4065.8189 1.95924 2.2016 4.36888 3.9562 7.06566 5.145zm31.8044-21.33445h6.08c3.37 0 5.12 1.38995 5.12 3.99995v.08c.0526.7605-.1715 1.5144-.6309 2.1227-.4594.6082-1.1232 1.03-1.8691 1.1873.89.079 1.7132.5052 2.2914 1.1864.5783.6812.8652 1.5626.7986 2.4536v.16c0 2.84-1.86 4.33-5.43 4.33h-6.36zm5.52 6.35995c1.68 0 2.35-.6 2.35-2v-.07c0-1.3-.73-1.89-2.38-1.89h-2.03v4zm.3 6.69c1.73 0 2.51-.78 2.51-2.19v-.08c0-1.43-.78-2.17-2.68-2.17h-2.19v4.44zm6.8799-.72c0-2.64 2.42-3.63 5.89-3.63h1.27v-.46c0-1.34-.4-2.05-1.84-2.05-.2328-.0307-.4694-.0128-.6949.0525-.2256.0653-.4351.1766-.6155.3269s-.3277.3364-.4326.5465c-.1049.21-.1652.4396-.177.6741h-3c.2-2.68 2.32-3.87 5.09-3.87s4.73 1.12 4.73 4.19v7.38h-3v-1.38c-.3861.5463-.9089.9816-1.5161 1.2624s-1.2775.3972-1.9439.3376c-2 0-3.76-1-3.76-3.38zm7.16-.82v-.95h-1.21c-1.82 0-2.88.39-2.88 1.6 0 .82.5 1.36 1.65 1.36 1.38 0 2.44-.75 2.44-2.01zm7.34.4104h-2.92c.11 2.45 1.94 3.79 4.93 3.79s4.76-1.29 4.76-3.72-1.56-3.14-4.39-3.55c-1.65-.23-2.19-.53-2.19-1.23s.6-1.17 1.6-1.17c.2072-.0353.4194-.0276.6235.0228.2041.0503.3956.1421.5626.2697s.3059.2883.4081.4719c.1022.1837.1654.3864.1858.5956h2.88c-.28-2.6-2.16-3.5-4.67-3.5-2.31 0-4.48 1.31-4.48 3.52s1.18 3.07 4.18 3.53c1.62.24 2.29.56 2.29 1.34s-.56 1.23-1.77 1.23c-1.37 0-1.87-.6-2-1.6zm7.5701-1.9716v-.17c-.038-.7772.086-1.5537.3642-2.2803.2783-.7266.7046-1.3874 1.2519-1.9404.5474-.553 1.2038-.9861 1.9275-1.2717.7237-.2857 1.4989-.4177 2.2764-.3876 2.92 0 5.52 1.71 5.52 5.75v.87h-8.16c.09 1.88 1.11 3 2.81 3 1.45 0 2.17-.63 2.36-1.58h3c-.36 2.44-2.31 3.81-5.4 3.81-3.46-.04-5.95-2.18-5.95-5.8zm8.29-1.36c-.11-1.71-1-2.53-2.47-2.53-.6774-.0028-1.3287.261-1.8133.7344-.4846.4733-.7636 1.1183-.7767 1.7956zm3.8699 1.1903v.17c0 3.7 2.53 5.79 5.82 5.79s5.2396-1.86 5.4096-4.55h-2.8296c-.019.3045-.0982.6022-.2329.8759s-.3223.5181-.5519.7189c-.2297.2008-.4968.3542-.7861.4512-.2892.097-.5948.1358-.8991.114-1.77 0-2.77-1.17-2.77-3.44v-.17c0-2.17 1.09-3.38 2.71-3.38.2778-.0274.5583.0011.8249.0838.2666.0828.5139.2181.7274.398s.3887.4007.5154.6495c.1267.2487.2023.5203.2223.7987h2.9996c-.32-3.25-2.6996-4.39-5.3196-4.39-.7787-.0313-1.5554.0996-2.2808.3845-.7255.285-1.3837.7177-1.9329 1.2706-.5492.553-.9774 1.2141-1.2573 1.9415-.28.7273-.4057 1.5049-.369 2.2834zm11.9696 2.5513c0-2.64 2.42-3.63 5.88-3.63h1.28v-.46c0-1.34-.41-2.07-1.84-2.07-.233-.0306-.47-.0128-.696.0525-.226.0652-.436.1763-.618.3265-.181.1502-.329.3362-.435.5463s-.167.4398-.181.6747h-3c.2-2.68 2.31-3.87 5.08-3.87s4.74 1.12 4.74 4.19v7.38h-3v-1.36c-.384.5387-.9.9691-1.499 1.2494-.6.2803-1.261.4011-1.921.3506-2.06 0-3.79-1-3.79-3.38zm7.16-.82v-.95h-1.21c-1.82 0-2.88.39-2.88 1.6 0 .82.5 1.36 1.64 1.36 1.39 0 2.45-.75 2.45-2.01zm8.19-7.3215h-3.13v11.27h3.13v-6.68c-.03-.3011.005-.6052.102-.8917.098-.2864.256-.5486.463-.7686.208-.2201.461-.3929.741-.5067.281-.1138.582-.166.884-.153 1.1 0 1.77.65 1.77 2.1v6.9h3.12v-6.68c-.031-.3006.002-.6045.098-.891.096-.2864.253-.5488.46-.769.207-.2203.459-.3933.739-.5072s.582-.166.883-.1528c1.13 0 1.78.65 1.78 2.1v6.9h3.11v-7.25c0-3-1.62-4.32-3.72-4.32-.751-.0132-1.495.1631-2.16.5126-.666.3495-1.233.861-1.65 1.4874-.236-.6302-.672-1.1662-1.24-1.527s-1.239-.5269-1.91-.473c-.705-.0148-1.402.1637-2.013.5162-.612.3525-1.116.8656-1.457 1.4838zm15.8.0002h3.14v1.77c.38-.6152.911-1.1224 1.544-1.4727.632-.3503 1.344-.5319 2.066-.5273 2.77 0 4.93 2 4.93 5.79v.18c0 3.74-2.12 5.84-4.93 5.84-.726.0263-1.446-.1461-2.082-.4985s-1.164-.8715-1.528-1.5015v5.58h-3.14zm8.5 5.7v-.14c0-2.3-1.12-3.42-2.7-3.42s-2.77 1.14-2.77 3.42v.17c0 2.27 1.08 3.37 2.79 3.37s2.68-1.2 2.68-3.4z" fill="#28323C" fill-rule="evenodd"/></g></svg>
